<mxfile host="app.diagrams.net" agent="Mozilla/5.0 (Windows NT 10.0; Win64; x64) AppleWebKit/537.36 (KHTML, like Gecko) Chrome/128.0.0.0 Safari/537.36" version="24.7.15" pages="2">
  <diagram id="fRmEKtxZJnCVrrNwurnc" name="一口价卖场概览">
    <mxGraphModel dx="1674" dy="746" grid="1" gridSize="10" guides="1" tooltips="1" connect="1" arrows="1" fold="1" page="1" pageScale="1" pageWidth="827" pageHeight="1169" math="0" shadow="0">
      <root>
        <mxCell id="0" />
        <mxCell id="1" parent="0" />
      </root>
    </mxGraphModel>
  </diagram>
  <diagram name="上架一口价卖场流程图" id="QRre9jd7cXMwsKDcS1s4">
    <mxGraphModel dx="1674" dy="746" grid="1" gridSize="10" guides="1" tooltips="1" connect="1" arrows="1" fold="1" page="1" pageScale="1" pageWidth="827" pageHeight="1169" math="0" shadow="0">
      <root>
        <mxCell id="0" />
        <mxCell id="1" parent="0" />
        <mxCell id="WYDLCy8g_keAyupNG0n2-7" value="" style="edgeStyle=orthogonalEdgeStyle;rounded=0;orthogonalLoop=1;jettySize=auto;html=1;" edge="1" parent="1" source="WYDLCy8g_keAyupNG0n2-1" target="WYDLCy8g_keAyupNG0n2-6">
          <mxGeometry relative="1" as="geometry" />
        </mxCell>
        <mxCell id="WYDLCy8g_keAyupNG0n2-1" value="天路货源上架&lt;div&gt;一口价卖场&lt;/div&gt;" style="rounded=1;whiteSpace=wrap;html=1;" vertex="1" parent="1">
          <mxGeometry x="180" y="50" width="120" height="60" as="geometry" />
        </mxCell>
        <mxCell id="WYDLCy8g_keAyupNG0n2-9" value="" style="edgeStyle=orthogonalEdgeStyle;rounded=0;orthogonalLoop=1;jettySize=auto;html=1;" edge="1" parent="1" source="WYDLCy8g_keAyupNG0n2-6" target="WYDLCy8g_keAyupNG0n2-8">
          <mxGeometry relative="1" as="geometry" />
        </mxCell>
        <mxCell id="WYDLCy8g_keAyupNG0n2-17" value="" style="edgeStyle=orthogonalEdgeStyle;rounded=0;orthogonalLoop=1;jettySize=auto;html=1;" edge="1" parent="1" source="WYDLCy8g_keAyupNG0n2-6" target="WYDLCy8g_keAyupNG0n2-16">
          <mxGeometry relative="1" as="geometry" />
        </mxCell>
        <mxCell id="WYDLCy8g_keAyupNG0n2-6" value="是否为&lt;div&gt;沙箱环境&lt;/div&gt;" style="rhombus;whiteSpace=wrap;html=1;rounded=1;" vertex="1" parent="1">
          <mxGeometry x="200" y="180" width="80" height="80" as="geometry" />
        </mxCell>
        <mxCell id="WYDLCy8g_keAyupNG0n2-11" value="" style="edgeStyle=orthogonalEdgeStyle;rounded=0;orthogonalLoop=1;jettySize=auto;html=1;" edge="1" parent="1" source="WYDLCy8g_keAyupNG0n2-8" target="WYDLCy8g_keAyupNG0n2-10">
          <mxGeometry relative="1" as="geometry" />
        </mxCell>
        <mxCell id="WYDLCy8g_keAyupNG0n2-8" value="是否为&lt;div&gt;沙箱上架&lt;/div&gt;&lt;div&gt;白名单&lt;div&gt;卖家&lt;/div&gt;&lt;/div&gt;" style="rhombus;whiteSpace=wrap;html=1;rounded=1;" vertex="1" parent="1">
          <mxGeometry x="360" y="180" width="80" height="80" as="geometry" />
        </mxCell>
        <mxCell id="WYDLCy8g_keAyupNG0n2-10" value="上架失败:&lt;div&gt;返回异常信息&lt;/div&gt;" style="whiteSpace=wrap;html=1;rounded=1;" vertex="1" parent="1">
          <mxGeometry x="500" y="190" width="120" height="60" as="geometry" />
        </mxCell>
        <mxCell id="WYDLCy8g_keAyupNG0n2-16" value="校验库存" style="rhombus;whiteSpace=wrap;html=1;rounded=1;" vertex="1" parent="1">
          <mxGeometry x="200" y="340" width="80" height="80" as="geometry" />
        </mxCell>
      </root>
    </mxGraphModel>
  </diagram>
</mxfile>
